<?xml version="1.0" encoding="utf-8"?>
<!-- Generator: Adobe Illustrator 28.4.1, SVG Export Plug-In . SVG Version: 6.00 Build 0)  -->
<svg version="1.1" id="Layer_1" xmlns="http://www.w3.org/2000/svg" xmlns:xlink="http://www.w3.org/1999/xlink" x="0px" y="0px"
	 viewBox="0 0 1024 1024" style="enable-background:new 0 0 1024 1024;" xml:space="preserve">
<style type="text/css">
	.st0{fill:#F2A0A1;}
	.st1{fill:#F3797A;}
	.st2{fill:#444545;}
</style>
<g>
	<path class="st0" d="M383.5,695.5L218.3,931.4C126,866.8,61.6,777.2,27.7,678.2c-1.3-3.9-2.6-7.8-3.8-11.7
		c-1.2-3.9-2.4-7.8-3.6-11.8c-1.7-5.9-3.3-11.8-4.8-17.8c-3-11.9-5.6-23.9-7.7-36c-3.1-20.7-8.1-42-8.3-61.7
		c-0.2-19.7,3.2-38,10.8-43.5c6.2-4.5,14.2,0.1,21.7,5.9c7.5,5.8,15.3,12.9,22.5,13.5c7.2,0.6,13.9-7.2,14.2-23
		c0.2-14.7-4.9-31.7-5.2-46.8c-0.3-16.1,5-26.2,10.9-31.3c11.5-9.7,26.7-5.6,40.7,11c9.9,11.7,19.5,29.4,29.6,34.6
		c13.1,6.7,22.8-9.8,30-27.7c7.3-17.9,14.2-38.7,26-42.4c11.6-3.6,25.9,10.8,37.5,31.4c11.7,20.6,21.4,46.9,30.9,72.7
		c7.1,19.4,15.2,37.9,22.3,57.3c0.2,0.9,0.3,1.8,0.5,2.6c0.3,1.8,0.7,3.5,1.1,5.3C304.3,612.3,335.2,661.7,383.5,695.5z"/>
	<path class="st1" d="M600.9,1016.2c-139.2,24.6-275.2-9.7-382.6-84.8c-3.7-3.3-8.6-5.2-10.5-10.4c-1.9-5.3-1.5-12.9,2.6-20.4
		c3.3-6.1,8.5-11.1,13.5-15.4c5-4.3,10.3-8.4,14.7-13.9c4.4-5.5,7.7-12.9,6.4-17.4c-1.2-4.2-5.8-4.8-7.3-8.7
		c-1.6-4.2,0.6-11.1,3.8-17.2c6-11.7,15.5-22.4,25.3-28.9c7-4.6,14.3-7.2,20.8-13.7c8.4-8.4,12.7-20.5,15.5-31.1
		c2.8-10.6,5-21.8,11.8-32c6.6-10.1,16.4-17.3,25.3-20.8c8.8-3.5,17-3.9,25-4.3c6-0.3,12.5-1.5,18.4-1.7
		c47,32.9,106.5,47.8,167.4,37.1L600.9,1016.2z"/>
	<path class="st0" d="M931.4,805.7C850.3,921.5,730,993.5,600.9,1016.2c-18.4-10-30.9-31.1-31-52.1c0-17,7.1-35-0.5-50.2
		c-6.9-14.1-23.8-20-34.5-31.6c-7.7-8.4-11.9-19.5-14-30.8c-3.7-20.1-0.9-40.9,5-60.5s16.1-40.1,24.9-58.5
		c56.5-9.9,109.1-41.4,144.6-92.1L931.4,805.7z"/>
	<path class="st1" d="M931.4,805.7c-6.7,4.9-23.4,21-31,24.3c-7.6,3.3-16.3,2.6-24.6,1.9c-9.2-0.8-18.6-1.6-27.1-5.1
		c-16-6.6-26.6-21.7-37.5-35.3c-10.8-13.6-24.3-27.2-41.6-28.8c-12.3-1.1-26.6,3.6-35.8-4.5c-8.5-7.5-6.8-21-3.2-31.7
		c3.6-10.7,11.9-19.9,7.9-30.5c-3-8.1-10.7-13.5-18.3-17.7c-7.6-4.2-15-7.3-20.5-14c-5.6-6.6-10.1-17.6-4.2-23.9
		c32.9-47,47.8-106.5,37.1-167.4l283.6-50C1040.8,562.3,1006.6,698.3,931.4,805.7z"/>
	<path class="st0" d="M968.2,504c-12.2,1.5-23.8-4.5-35.1-9.3c-11.3-4.8-24.5-8.5-35.4-2.9c-8.4,4.3-13.3,13.1-20,19.8
		c-9.5,9.4-23,14.6-36.3,13.8c-6.9-0.4-14.5-2.8-18-8.8c-3.3-5.6-2.5-13.1-6.2-18.4c-4.1-5.7-12.4-7-19.1-5
		c-6.8,2-12.4,6.4-18.3,10.4c-5.8,3.9-12.4,7.5-19.4,7.4c-8.6-0.2-16.2-6.1-20.8-13.3c-4.6-7.2-4.9-16.2-6.9-24.6
		c-9.9-56.5-41.4-109.1-92.1-144.6L805.7,92.6c115.8,81.1,187.8,201.5,210.6,330.5c-2.2,8.8-5.4,17.5-7.5,26.3
		c-2.9,11.7-5.8,23.7-12.1,34C990.4,493.8,980.2,502.5,968.2,504z"/>
	<path class="st1" d="M805.7,92.6c-54-37.8-159.2-65.1-228-79.9c-41.9-9-85.6-5.4-125.4,10.5C388,48.8,324.8,77.4,268.5,117.6
		c-38.6,27.6-73.6,60.3-103.6,97.1c14,20.2,36.2,33.5,59.5,41.1c23.3,7.7,48,10.2,72.4,12.7c70.4,7.2,144.7,12.3,215.1,19.5
		c47-0.1,91.6,14.7,128.5,40.5c20.9-1.3,41.2-15.2,50.1-34.1c7.2-15.4,8.4-34.7,21.6-45.3c12.2-9.8,30-8.1,44.6-14.1
		c10.6-4.3,19.1-12.7,25.7-22c11.8-16.7,18.1-36.7,21.1-57C806.5,135.9,805.9,113,805.7,92.6z"/>
	<circle class="st2" cx="331" cy="144" r="29.2"/>
</g>
</svg>
